# xmcd
#
# Track frame offsets: 
#        150
#        17557
#        33755
#        49787
#        65597
#        80175
#        95847
#        111912
#        128960
#        144075
#
# Disc length: 2180 seconds
#
# Revision: 2
# Processed by: cddbd v1.5PL3 Copyright (c) Steve Scherf et al.
# Submitted via: ExactAudioCopy v0.95a3
#
DISCID=8608820a
DTITLE=Mathews, Wright, and King - Dream Seekers
DYEAR=1993
DGENRE=
TTITLE0=One Of These Days
TTITLE1=Every Step Of The Way
TTITLE2=I Got A Love
TTITLE3=She's Letting Go
TTITLE4=Don't Forget About Me
TTITLE5=Plain Jane
TTITLE6=The Truth Is Killin' Me
TTITLE7=Uncle Sam's Right Hand Man
TTITLE8=Dream Seeker
TTITLE9=Big Money
EXTD=
EXTT0=
EXTT1=
EXTT2=
EXTT3=
EXTT4=
EXTT5=
EXTT6=
EXTT7=
EXTT8=
EXTT9=
PLAYORDER=
